<?xml version="1.0" encoding="utf-8"?>
<!-- Generator: Adobe Illustrator 16.0.0, SVG Export Plug-In . SVG Version: 6.00 Build 0)  -->
<!DOCTYPE svg PUBLIC "-//W3C//DTD SVG 1.1//EN" "http://www.w3.org/Graphics/SVG/1.1/DTD/svg11.dtd">
<svg version="1.1" id="Layer_1" xmlns="http://www.w3.org/2000/svg" xmlns:xlink="http://www.w3.org/1999/xlink" x="0px" y="0px"
	 width="380px" height="400px" viewBox="148.5 0 380 400" enable-background="new 148.5 0 380 400" xml:space="preserve">
<g transform="translate(0.000000,500.000000) scale(0.100000,-0.100000)" opacity="0.5">
	<path d="M3558.301,4901.523v-89.473h-94.741h-94.722v-610.522V3591h-94.741h-94.741v-75.791
		c0-130.522,6.323-124.209-132.632-124.209h-120v-89.468v-89.478h-136.846h-136.836v-105.269v-105.249h-95.791h-95.791l4.204-84.224
		l3.164-84.219h-202.104h-203.154v105.264v105.273h-89.478h-89.473v88.418v87.368l-91.577,7.373
		c-50.527,3.154-93.687,8.423-95.791,11.577c-3.154,3.154-8.413,82.104-11.577,175.786l-6.318,171.577l-81.05,3.164l-82.104,3.159
		V3033.1v-557.886h84.204h84.214v-68.418v-68.428h94.736h94.736v-100v-100.01h205.264h205.264v-200v-199.99h68.423h68.413v-373.682
		V990.996h210.527h210.532v94.746v94.736h-121.05h-121.06v94.736v94.736h105.269h105.259v89.473v89.473h89.473h89.473v94.746v94.727
		h100.005h99.995v-93.691c0-107.363-2.109-106.309,113.696-106.309h65.264v-273.672V990.996h210.518h210.537v94.746v94.736h-130.527
		h-129.482l-5.254,371.572c-3.174,257.891-1.064,372.646,6.299,377.9c6.328,4.189,48.428,8.408,93.691,8.408h81.045v100.01v99.99
		h98.945h98.965l4.199,116.855c4.209,143.154,7.363,146.318,126.318,146.318h82.109v315.781V3033.1h89.463h89.482v-84.204v-84.209
		h89.463h89.492V3033.1v168.428h-178.955h-178.945v213.681v213.687l357.9-4.214l357.881-5.264v70.532v69.473h-263.154h-263.164
		v110.522v110.527h313.691c173.682,0,386.309,3.159,473.691,7.363l159.99,6.323v409.473v408.418h-115.791h-115.791v89.473V4991
		h-731.562h-731.592V4901.523z M3916.201,4685.732V4591h-94.746h-94.736v94.731v94.741h94.736h94.746V4685.732z"/>
</g>
</svg>
